<mxfile host="app.diagrams.net" modified="2023-07-25T13:31:06.506Z" agent="Mozilla/5.0 (Macintosh; Intel Mac OS X 10_15_7) AppleWebKit/537.36 (KHTML, like Gecko) Chrome/115.0.0.0 Safari/537.36" version="21.5.2" etag="SkeUcFwUGvJJ0o8Gq4BW" type="github">
  <diagram name="Page-1" id="mWdsw3cW-Mb6ssQe_K65">
    <mxGraphModel>
      <root>
        <mxCell id="0" />
        <mxCell id="1" parent="0" />
      </root>
    </mxGraphModel>
  </diagram>
</mxfile>
